<svg xmlns="http://www.w3.org/2000/svg" viewBox="0 0 640 256" width="640" height="256" preserveAspectRatio="xMidYMid meet">
  <!-- Preview-safe SVG: all visible lettering is converted to vector paths. -->
  <g>
    <g fill="none" stroke="#6A7A90" stroke-width="6" stroke-linecap="round">
      <line x1="80" y1="20" x2="80" y2="40"/><line x1="112" y1="20" x2="112" y2="40"/>
      <line x1="144" y1="20" x2="144" y2="40"/><line x1="176" y1="20" x2="176" y2="40"/>
      <line x1="80" y1="236" x2="80" y2="216"/><line x1="112" y1="236" x2="112" y2="216"/>
      <line x1="144" y1="236" x2="144" y2="216"/><line x1="176" y1="236" x2="176" y2="216"/>
      <line x1="20" y1="80" x2="40" y2="80"/><line x1="20" y1="112" x2="40" y2="112"/>
      <line x1="20" y1="144" x2="40" y2="144"/><line x1="20" y1="176" x2="40" y2="176"/>
      <line x1="236" y1="80" x2="216" y2="80"/><line x1="236" y1="112" x2="216" y2="112"/>
      <line x1="236" y1="144" x2="216" y2="144"/><line x1="236" y1="176" x2="216" y2="176"/>
    </g>

    <rect x="40" y="40" width="176" height="176" rx="16" fill="#171C26" stroke="#2A3445" stroke-width="4"/>
    <g fill="#6A7A90">
<path d="M403 1327V766H657Q798 766 875.0 839.0Q952 912 952 1047Q952 1181 875.0 1254.0Q798 1327 657 1327ZM201 1493H657Q908 1493 1036.5 1379.5Q1165 1266 1165 1047Q1165 826 1036.5 713.0Q908 600 657 600H403V0H201Z" transform="translate(112.4141 74.0000) scale(0.00683594 -0.00683594)"/>
<path d="M1096 1444V1247Q981 1302 879.0 1329.0Q777 1356 682 1356Q517 1356 427.5 1292.0Q338 1228 338 1110Q338 1011 397.5 960.5Q457 910 623 879L745 854Q971 811 1078.5 702.5Q1186 594 1186 412Q1186 195 1040.5 83.0Q895 -29 614 -29Q508 -29 388.5 -5.0Q269 19 141 66V274Q264 205 382.0 170.0Q500 135 614 135Q787 135 881.0 203.0Q975 271 975 397Q975 507 907.5 569.0Q840 631 686 662L563 686Q337 731 236.0 827.0Q135 923 135 1094Q135 1292 274.5 1406.0Q414 1520 659 1520Q764 1520 873.0 1501.0Q982 1482 1096 1444Z" transform="translate(120.8564 74.0000) scale(0.00683594 -0.00683594)"/>
<path d="M68 1493H272L586 231L899 1493H1126L1440 231L1753 1493H1958L1583 0H1329L1014 1296L696 0H442Z" transform="translate(129.7432 74.0000) scale(0.00683594 -0.00683594)"/>
</g>
    <g fill="#B8DF54" opacity="1"><animate attributeName="opacity" values="1;1;0;0;0;0;0;0;1" keyTimes="0;0.15;0.25;0.40;0.50;0.65;0.75;0.90;1" dur="8s" repeatCount="indefinite"/>
<path d="M492 745Q492 798 528.0 834.0Q564 870 616 870Q669 870 705.0 834.0Q741 798 741 745Q741 693 705.0 657.0Q669 621 616 621Q564 621 528.0 656.5Q492 692 492 745ZM616 1270Q514 1270 467.0 1145.0Q420 1020 420 745Q420 471 467.0 346.0Q514 221 616 221Q719 221 766.0 346.0Q813 471 813 745Q813 1020 766.0 1145.0Q719 1270 616 1270ZM123 745Q123 1133 246.0 1326.5Q369 1520 616 1520Q864 1520 987.0 1327.0Q1110 1134 1110 745Q1110 357 987.0 164.0Q864 -29 616 -29Q369 -29 246.0 164.5Q123 358 123 745Z" transform="translate(87.0605 112.0000) scale(0.01660156 -0.01660156)"/>
<path d="M492 745Q492 798 528.0 834.0Q564 870 616 870Q669 870 705.0 834.0Q741 798 741 745Q741 693 705.0 657.0Q669 621 616 621Q564 621 528.0 656.5Q492 692 492 745ZM616 1270Q514 1270 467.0 1145.0Q420 1020 420 745Q420 471 467.0 346.0Q514 221 616 221Q719 221 766.0 346.0Q813 471 813 745Q813 1020 766.0 1145.0Q719 1270 616 1270ZM123 745Q123 1133 246.0 1326.5Q369 1520 616 1520Q864 1520 987.0 1327.0Q1110 1134 1110 745Q1110 357 987.0 164.0Q864 -29 616 -29Q369 -29 246.0 164.5Q123 358 123 745Z" transform="translate(107.5303 112.0000) scale(0.01660156 -0.01660156)"/>
<path d="M492 745Q492 798 528.0 834.0Q564 870 616 870Q669 870 705.0 834.0Q741 798 741 745Q741 693 705.0 657.0Q669 621 616 621Q564 621 528.0 656.5Q492 692 492 745ZM616 1270Q514 1270 467.0 1145.0Q420 1020 420 745Q420 471 467.0 346.0Q514 221 616 221Q719 221 766.0 346.0Q813 471 813 745Q813 1020 766.0 1145.0Q719 1270 616 1270ZM123 745Q123 1133 246.0 1326.5Q369 1520 616 1520Q864 1520 987.0 1327.0Q1110 1134 1110 745Q1110 357 987.0 164.0Q864 -29 616 -29Q369 -29 246.0 164.5Q123 358 123 745Z" transform="translate(128.0000 112.0000) scale(0.01660156 -0.01660156)"/>
<path d="M492 745Q492 798 528.0 834.0Q564 870 616 870Q669 870 705.0 834.0Q741 798 741 745Q741 693 705.0 657.0Q669 621 616 621Q564 621 528.0 656.5Q492 692 492 745ZM616 1270Q514 1270 467.0 1145.0Q420 1020 420 745Q420 471 467.0 346.0Q514 221 616 221Q719 221 766.0 346.0Q813 471 813 745Q813 1020 766.0 1145.0Q719 1270 616 1270ZM123 745Q123 1133 246.0 1326.5Q369 1520 616 1520Q864 1520 987.0 1327.0Q1110 1134 1110 745Q1110 357 987.0 164.0Q864 -29 616 -29Q369 -29 246.0 164.5Q123 358 123 745Z" transform="translate(148.4697 112.0000) scale(0.01660156 -0.01660156)"/>
</g>
<g fill="#B8DF54" opacity="0"><animate attributeName="opacity" values="0;0;1;1;0;0;0;0;0" keyTimes="0;0.15;0.25;0.40;0.50;0.65;0.75;0.90;1" dur="8s" repeatCount="indefinite"/>
<path d="M492 745Q492 798 528.0 834.0Q564 870 616 870Q669 870 705.0 834.0Q741 798 741 745Q741 693 705.0 657.0Q669 621 616 621Q564 621 528.0 656.5Q492 692 492 745ZM616 1270Q514 1270 467.0 1145.0Q420 1020 420 745Q420 471 467.0 346.0Q514 221 616 221Q719 221 766.0 346.0Q813 471 813 745Q813 1020 766.0 1145.0Q719 1270 616 1270ZM123 745Q123 1133 246.0 1326.5Q369 1520 616 1520Q864 1520 987.0 1327.0Q1110 1134 1110 745Q1110 357 987.0 164.0Q864 -29 616 -29Q369 -29 246.0 164.5Q123 358 123 745Z" transform="translate(87.0605 112.0000) scale(0.01660156 -0.01660156)"/>
<path d="M492 745Q492 798 528.0 834.0Q564 870 616 870Q669 870 705.0 834.0Q741 798 741 745Q741 693 705.0 657.0Q669 621 616 621Q564 621 528.0 656.5Q492 692 492 745ZM616 1270Q514 1270 467.0 1145.0Q420 1020 420 745Q420 471 467.0 346.0Q514 221 616 221Q719 221 766.0 346.0Q813 471 813 745Q813 1020 766.0 1145.0Q719 1270 616 1270ZM123 745Q123 1133 246.0 1326.5Q369 1520 616 1520Q864 1520 987.0 1327.0Q1110 1134 1110 745Q1110 357 987.0 164.0Q864 -29 616 -29Q369 -29 246.0 164.5Q123 358 123 745Z" transform="translate(107.5303 112.0000) scale(0.01660156 -0.01660156)"/>
<path d="M492 745Q492 798 528.0 834.0Q564 870 616 870Q669 870 705.0 834.0Q741 798 741 745Q741 693 705.0 657.0Q669 621 616 621Q564 621 528.0 656.5Q492 692 492 745ZM616 1270Q514 1270 467.0 1145.0Q420 1020 420 745Q420 471 467.0 346.0Q514 221 616 221Q719 221 766.0 346.0Q813 471 813 745Q813 1020 766.0 1145.0Q719 1270 616 1270ZM123 745Q123 1133 246.0 1326.5Q369 1520 616 1520Q864 1520 987.0 1327.0Q1110 1134 1110 745Q1110 357 987.0 164.0Q864 -29 616 -29Q369 -29 246.0 164.5Q123 358 123 745Z" transform="translate(128.0000 112.0000) scale(0.01660156 -0.01660156)"/>
<path d="M188 260H518V1229L211 1153V1419L520 1493H805V260H1135V0H188Z" transform="translate(148.4697 112.0000) scale(0.01660156 -0.01660156)"/>
</g>
<g fill="#B8DF54" opacity="0"><animate attributeName="opacity" values="0;0;0;0;1;1;0;0;0" keyTimes="0;0.15;0.25;0.40;0.50;0.65;0.75;0.90;1" dur="8s" repeatCount="indefinite"/>
<path d="M492 745Q492 798 528.0 834.0Q564 870 616 870Q669 870 705.0 834.0Q741 798 741 745Q741 693 705.0 657.0Q669 621 616 621Q564 621 528.0 656.5Q492 692 492 745ZM616 1270Q514 1270 467.0 1145.0Q420 1020 420 745Q420 471 467.0 346.0Q514 221 616 221Q719 221 766.0 346.0Q813 471 813 745Q813 1020 766.0 1145.0Q719 1270 616 1270ZM123 745Q123 1133 246.0 1326.5Q369 1520 616 1520Q864 1520 987.0 1327.0Q1110 1134 1110 745Q1110 357 987.0 164.0Q864 -29 616 -29Q369 -29 246.0 164.5Q123 358 123 745Z" transform="translate(87.0605 112.0000) scale(0.01660156 -0.01660156)"/>
<path d="M492 745Q492 798 528.0 834.0Q564 870 616 870Q669 870 705.0 834.0Q741 798 741 745Q741 693 705.0 657.0Q669 621 616 621Q564 621 528.0 656.5Q492 692 492 745ZM616 1270Q514 1270 467.0 1145.0Q420 1020 420 745Q420 471 467.0 346.0Q514 221 616 221Q719 221 766.0 346.0Q813 471 813 745Q813 1020 766.0 1145.0Q719 1270 616 1270ZM123 745Q123 1133 246.0 1326.5Q369 1520 616 1520Q864 1520 987.0 1327.0Q1110 1134 1110 745Q1110 357 987.0 164.0Q864 -29 616 -29Q369 -29 246.0 164.5Q123 358 123 745Z" transform="translate(107.5303 112.0000) scale(0.01660156 -0.01660156)"/>
<path d="M492 745Q492 798 528.0 834.0Q564 870 616 870Q669 870 705.0 834.0Q741 798 741 745Q741 693 705.0 657.0Q669 621 616 621Q564 621 528.0 656.5Q492 692 492 745ZM616 1270Q514 1270 467.0 1145.0Q420 1020 420 745Q420 471 467.0 346.0Q514 221 616 221Q719 221 766.0 346.0Q813 471 813 745Q813 1020 766.0 1145.0Q719 1270 616 1270ZM123 745Q123 1133 246.0 1326.5Q369 1520 616 1520Q864 1520 987.0 1327.0Q1110 1134 1110 745Q1110 357 987.0 164.0Q864 -29 616 -29Q369 -29 246.0 164.5Q123 358 123 745Z" transform="translate(128.0000 112.0000) scale(0.01660156 -0.01660156)"/>
<path d="M434 260H1063V0H115V252L275 422Q560 725 621 795Q696 881 729.0 947.5Q762 1014 762 1079Q762 1179 701.5 1233.5Q641 1288 530 1288Q451 1288 352.5 1256.5Q254 1225 147 1165V1440Q254 1479 356.5 1499.5Q459 1520 553 1520Q790 1520 925.5 1409.5Q1061 1299 1061 1108Q1061 1020 1031.5 943.0Q1002 866 930 772Q877 704 639 466Q510 337 434 260Z" transform="translate(148.4697 112.0000) scale(0.01660156 -0.01660156)"/>
</g>
<g fill="#B8DF54" opacity="0"><animate attributeName="opacity" values="0;0;0;0;0;0;1;1;0" keyTimes="0;0.15;0.25;0.40;0.50;0.65;0.75;0.90;1" dur="8s" repeatCount="indefinite"/>
<path d="M492 745Q492 798 528.0 834.0Q564 870 616 870Q669 870 705.0 834.0Q741 798 741 745Q741 693 705.0 657.0Q669 621 616 621Q564 621 528.0 656.5Q492 692 492 745ZM616 1270Q514 1270 467.0 1145.0Q420 1020 420 745Q420 471 467.0 346.0Q514 221 616 221Q719 221 766.0 346.0Q813 471 813 745Q813 1020 766.0 1145.0Q719 1270 616 1270ZM123 745Q123 1133 246.0 1326.5Q369 1520 616 1520Q864 1520 987.0 1327.0Q1110 1134 1110 745Q1110 357 987.0 164.0Q864 -29 616 -29Q369 -29 246.0 164.5Q123 358 123 745Z" transform="translate(87.0605 112.0000) scale(0.01660156 -0.01660156)"/>
<path d="M492 745Q492 798 528.0 834.0Q564 870 616 870Q669 870 705.0 834.0Q741 798 741 745Q741 693 705.0 657.0Q669 621 616 621Q564 621 528.0 656.5Q492 692 492 745ZM616 1270Q514 1270 467.0 1145.0Q420 1020 420 745Q420 471 467.0 346.0Q514 221 616 221Q719 221 766.0 346.0Q813 471 813 745Q813 1020 766.0 1145.0Q719 1270 616 1270ZM123 745Q123 1133 246.0 1326.5Q369 1520 616 1520Q864 1520 987.0 1327.0Q1110 1134 1110 745Q1110 357 987.0 164.0Q864 -29 616 -29Q369 -29 246.0 164.5Q123 358 123 745Z" transform="translate(107.5303 112.0000) scale(0.01660156 -0.01660156)"/>
<path d="M492 745Q492 798 528.0 834.0Q564 870 616 870Q669 870 705.0 834.0Q741 798 741 745Q741 693 705.0 657.0Q669 621 616 621Q564 621 528.0 656.5Q492 692 492 745ZM616 1270Q514 1270 467.0 1145.0Q420 1020 420 745Q420 471 467.0 346.0Q514 221 616 221Q719 221 766.0 346.0Q813 471 813 745Q813 1020 766.0 1145.0Q719 1270 616 1270ZM123 745Q123 1133 246.0 1326.5Q369 1520 616 1520Q864 1520 987.0 1327.0Q1110 1134 1110 745Q1110 357 987.0 164.0Q864 -29 616 -29Q369 -29 246.0 164.5Q123 358 123 745Z" transform="translate(128.0000 112.0000) scale(0.01660156 -0.01660156)"/>
<path d="M616 1223 477 612H756ZM436 1493H797L1200 0H905L813 369H418L328 0H33Z" transform="translate(148.4697 112.0000) scale(0.01660156 -0.01660156)"/>
</g>

    <circle cx="80" cy="148" r="5" fill="#8892A3"/>
    <circle cx="112" cy="148" r="5" fill="#8892A3"/>
    <circle cx="144" cy="148" r="5" fill="#8892A3"/>
    <circle cx="176" cy="148" r="5" fill="#8892A3"/>

    <circle cx="80" cy="148" r="5" fill="#E95B6F" opacity="1">
      <animate attributeName="opacity" values="1;1;0;0" keyTimes="0;0.125;0.25;1" dur="8s" repeatCount="indefinite"/>
    </circle>
    <circle cx="112" cy="148" r="5" fill="#E95B6F" opacity="0">
      <animate attributeName="opacity" values="0;0;1;0;0" keyTimes="0;0.25;0.375;0.5;1" dur="8s" repeatCount="indefinite"/>
    </circle>
    <circle cx="144" cy="148" r="5" fill="#E95B6F" opacity="0">
      <animate attributeName="opacity" values="0;0;1;0;0" keyTimes="0;0.5;0.625;0.75;1" dur="8s" repeatCount="indefinite"/>
    </circle>
    <circle cx="176" cy="148" r="5" fill="#E95B6F" opacity="0">
      <animate attributeName="opacity" values="0;0;1;0" keyTimes="0;0.75;0.875;1" dur="8s" repeatCount="indefinite"/>
    </circle>

    <g fill="#6A7A90">
<path d="M115 1493H1288V1339L344 170H1311V0H92V154L1036 1323H115Z" transform="translate(76.5747 168.0000) scale(0.00488281 -0.00488281)"/>
</g>
<g fill="#6A7A90">
<path d="M1096 1444V1247Q981 1302 879.0 1329.0Q777 1356 682 1356Q517 1356 427.5 1292.0Q338 1228 338 1110Q338 1011 397.5 960.5Q457 910 623 879L745 854Q971 811 1078.5 702.5Q1186 594 1186 412Q1186 195 1040.5 83.0Q895 -29 614 -29Q508 -29 388.5 -5.0Q269 19 141 66V274Q264 205 382.0 170.0Q500 135 614 135Q787 135 881.0 203.0Q975 271 975 397Q975 507 907.5 569.0Q840 631 686 662L563 686Q337 731 236.0 827.0Q135 923 135 1094Q135 1292 274.5 1406.0Q414 1520 659 1520Q764 1520 873.0 1501.0Q982 1482 1096 1444Z" transform="translate(108.8262 168.0000) scale(0.00488281 -0.00488281)"/>
</g>
<g fill="#6A7A90">
<path d="M403 1327V766H657Q798 766 875.0 839.0Q952 912 952 1047Q952 1181 875.0 1254.0Q798 1327 657 1327ZM201 1493H657Q908 1493 1036.5 1379.5Q1165 1266 1165 1047Q1165 826 1036.5 713.0Q908 600 657 600H403V0H201Z" transform="translate(140.9849 168.0000) scale(0.00488281 -0.00488281)"/>
</g>
<g fill="#6A7A90">
<path d="M1319 1378V1165Q1217 1260 1101.5 1307.0Q986 1354 856 1354Q600 1354 464.0 1197.5Q328 1041 328 745Q328 450 464.0 293.5Q600 137 856 137Q986 137 1101.5 184.0Q1217 231 1319 326V115Q1213 43 1094.5 7.0Q976 -29 844 -29Q505 -29 310.0 178.5Q115 386 115 745Q115 1105 310.0 1312.5Q505 1520 844 1520Q978 1520 1096.5 1484.5Q1215 1449 1319 1378Z" transform="translate(172.5088 168.0000) scale(0.00488281 -0.00488281)"/>
</g>
    <rect x="94" y="184" width="68" height="16" rx="4" fill="#1C2331"/>
    <g fill="#E95B6F" opacity="0"><animate attributeName="opacity" values="0;0;1;1;0" keyTimes="0;0.3;0.5;0.8;1" dur="6s" repeatCount="indefinite"/>
<path d="M403 713V166H727Q890 166 968.5 233.5Q1047 301 1047 440Q1047 580 968.5 646.5Q890 713 727 713ZM403 1327V877H702Q850 877 922.5 932.5Q995 988 995 1102Q995 1215 922.5 1271.0Q850 1327 702 1327ZM201 1493H717Q948 1493 1073.0 1397.0Q1198 1301 1198 1124Q1198 987 1134.0 906.0Q1070 825 946 805Q1095 773 1177.5 671.5Q1260 570 1260 418Q1260 218 1124.0 109.0Q988 0 737 0H201Z" transform="translate(116.0139 195.0000) scale(0.00439453 -0.00439453)"/>
<path d="M178 1493H381V586Q381 346 468.0 240.5Q555 135 750 135Q944 135 1031.0 240.5Q1118 346 1118 586V1493H1321V561Q1321 269 1176.5 120.0Q1032 -29 750 -29Q467 -29 322.5 120.0Q178 269 178 561Z" transform="translate(122.1882 195.0000) scale(0.00439453 -0.00439453)"/>
<path d="M1096 1444V1247Q981 1302 879.0 1329.0Q777 1356 682 1356Q517 1356 427.5 1292.0Q338 1228 338 1110Q338 1011 397.5 960.5Q457 910 623 879L745 854Q971 811 1078.5 702.5Q1186 594 1186 412Q1186 195 1040.5 83.0Q895 -29 614 -29Q508 -29 388.5 -5.0Q269 19 141 66V274Q264 205 382.0 170.0Q500 135 614 135Q787 135 881.0 203.0Q975 271 975 397Q975 507 907.5 569.0Q840 631 686 662L563 686Q337 731 236.0 827.0Q135 923 135 1094Q135 1292 274.5 1406.0Q414 1520 659 1520Q764 1520 873.0 1501.0Q982 1482 1096 1444Z" transform="translate(128.7756 195.0000) scale(0.00439453 -0.00439453)"/>
<path d="M-4 1493H213L627 879L1038 1493H1255L727 711V0H524V711Z" transform="translate(134.4885 195.0000) scale(0.00439453 -0.00439453)"/>
</g>
    <g fill="#B8DF54" opacity="1"><animate attributeName="opacity" values="1;1;0;0;1" keyTimes="0;0.3;0.5;0.8;1" dur="6s" repeatCount="indefinite"/>
<path d="M909 700Q974 678 1035.5 606.0Q1097 534 1159 408L1364 0H1147L956 383Q882 533 812.5 582.0Q743 631 623 631H403V0H201V1493H657Q913 1493 1039.0 1386.0Q1165 1279 1165 1063Q1165 922 1099.5 829.0Q1034 736 909 700ZM403 1327V797H657Q803 797 877.5 864.5Q952 932 952 1063Q952 1194 877.5 1260.5Q803 1327 657 1327Z" transform="translate(112.7378 195.0000) scale(0.00439453 -0.00439453)"/>
<path d="M201 1493H1145V1323H403V881H1114V711H403V170H1163V0H201Z" transform="translate(118.9912 195.0000) scale(0.00439453 -0.00439453)"/>
<path d="M700 1294 426 551H975ZM586 1493H815L1384 0H1174L1038 383H365L229 0H16Z" transform="translate(124.6777 195.0000) scale(0.00439453 -0.00439453)"/>
<path d="M403 1327V166H647Q956 166 1099.5 306.0Q1243 446 1243 748Q1243 1048 1099.5 1187.5Q956 1327 647 1327ZM201 1493H616Q1050 1493 1253.0 1312.5Q1456 1132 1456 748Q1456 362 1252.0 181.0Q1048 0 616 0H201Z" transform="translate(130.8345 195.0000) scale(0.00439453 -0.00439453)"/>
<path d="M-4 1493H213L627 879L1038 1493H1255L727 711V0H524V711Z" transform="translate(137.7646 195.0000) scale(0.00439453 -0.00439453)"/>
</g>
  </g>

  <g fill="#7AA2F7" opacity="0.95">
<path d="M188 1493H573V948L1128 1493H1575L856 786L1649 0H1167L573 588V0H188Z" transform="translate(270.0000 163.0000) scale(0.04687500 -0.04687500)"/>
<path d="M735 831Q856 831 908.5 876.0Q961 921 961 1024Q961 1126 908.5 1170.0Q856 1214 735 1214H573V831ZM573 565V0H188V1493H776Q1071 1493 1208.5 1394.0Q1346 1295 1346 1081Q1346 933 1274.5 838.0Q1203 743 1059 698Q1138 680 1200.5 616.5Q1263 553 1327 424L1536 0H1126L944 371Q889 483 832.5 524.0Q776 565 682 565Z" transform="translate(342.3906 163.0000) scale(0.04687500 -0.04687500)"/>
<path d="M217 1493H1174V1210H524V979Q568 991 612.5 997.5Q657 1004 705 1004Q978 1004 1130.0 867.5Q1282 731 1282 487Q1282 245 1116.5 108.0Q951 -29 657 -29Q530 -29 405.5 -4.5Q281 20 158 70V373Q280 303 389.5 268.0Q499 233 596 233Q736 233 816.5 301.5Q897 370 897 487Q897 605 816.5 673.0Q736 741 596 741Q513 741 419.0 719.5Q325 698 217 653Z" transform="translate(414.3125 163.0000) scale(0.04687500 -0.04687500)"/>
<path d="M713 668Q605 668 547.0 609.0Q489 550 489 440Q489 330 547.0 271.5Q605 213 713 213Q820 213 877.0 271.5Q934 330 934 440Q934 551 877.0 609.5Q820 668 713 668ZM432 795Q296 836 227.0 921.0Q158 1006 158 1133Q158 1322 299.0 1421.0Q440 1520 713 1520Q984 1520 1125.0 1421.5Q1266 1323 1266 1133Q1266 1006 1196.5 921.0Q1127 836 991 795Q1143 753 1220.5 658.5Q1298 564 1298 420Q1298 198 1150.5 84.5Q1003 -29 713 -29Q422 -29 273.5 84.5Q125 198 125 420Q125 564 202.5 658.5Q280 753 432 795ZM522 1094Q522 1005 571.5 957.0Q621 909 713 909Q803 909 852.0 957.0Q901 1005 901 1094Q901 1183 852.0 1230.5Q803 1278 713 1278Q621 1278 571.5 1230.0Q522 1182 522 1094Z" transform="translate(479.1094 163.0000) scale(0.04687500 -0.04687500)"/>
<path d="M942 748Q942 1028 889.5 1142.5Q837 1257 713 1257Q589 1257 536.0 1142.5Q483 1028 483 748Q483 465 536.0 349.0Q589 233 713 233Q836 233 889.0 349.0Q942 465 942 748ZM1327 745Q1327 374 1167.0 172.5Q1007 -29 713 -29Q418 -29 258.0 172.5Q98 374 98 745Q98 1117 258.0 1318.5Q418 1520 713 1520Q1007 1520 1167.0 1318.5Q1327 1117 1327 745Z" transform="translate(543.9062 163.0000) scale(0.04687500 -0.04687500)"/>
</g>
</svg>